<svg width="71" height="34" viewBox="0 0 71 34" fill="none" xmlns="http://www.w3.org/2000/svg">
<path d="M14.8877 31.3162C7.72957 31.3162 1.92676 24.9716 1.92676 17.145C1.92676 9.31847 7.72957 2.9738 14.8877 2.9738C22.0458 2.9738 27.8486 9.31847 27.8486 17.145C27.8486 24.9716 22.0458 31.3162 14.8877 31.3162ZM14.8877 33.3407C23.0684 33.3407 29.7002 26.0896 29.7002 17.145C29.7002 8.20039 23.0684 0.949341 14.8877 0.949341C6.70698 0.949341 0.0751953 8.20039 0.0751953 17.145C0.0751953 26.0896 6.70698 33.3407 14.8877 33.3407Z" fill="#454545"/>
<path d="M9.80536 12.6632C9.7913 12.9389 9.99939 13.1623 10.252 13.1623H11.7786C12.0342 13.1623 12.2375 12.9344 12.2719 12.6574C12.4366 11.3291 13.2704 10.3609 14.7566 10.3609C16.026 10.3609 17.1895 11.0548 17.1895 12.7254C17.1895 14.0105 16.4961 14.6016 15.4031 15.5011C14.1572 16.4906 13.17 17.6472 13.2405 19.5234L13.246 19.9623C13.2495 20.2391 13.4557 20.4615 13.7088 20.4615H15.2105C15.4661 20.4615 15.6734 20.2349 15.6734 19.9553V19.7418C15.6734 18.2897 16.1788 17.8656 17.5421 16.7348C18.6704 15.7967 19.8457 14.7558 19.8457 12.5712C19.8457 9.51277 17.4834 8.03495 14.8977 8.03495C12.5516 8.03495 9.98038 9.23062 9.80536 12.6632ZM12.6881 24.3295C12.6881 25.4089 13.4756 26.2057 14.5568 26.2057C15.6851 26.2057 16.4608 25.4089 16.4608 24.3295C16.4608 23.2115 15.6851 22.4276 14.5568 22.4276C13.4756 22.4276 12.6881 23.2115 12.6881 24.3295Z" fill="#454545"/>
<path d="M41.0762 19V7.912H47.7642V9.24H42.6282V12.584H47.1882V13.896H42.6282V19H41.0762ZM56.3436 19C56.1622 18.52 55.9916 18.0507 55.8316 17.592C55.6716 17.1227 55.5062 16.648 55.3356 16.168H50.3116L49.3036 19H47.6876C48.1142 17.8267 48.5142 16.744 48.8876 15.752C49.2609 14.7493 49.6236 13.8 49.9756 12.904C50.3382 12.008 50.6956 11.1547 51.0476 10.344C51.3996 9.52267 51.7676 8.712 52.1516 7.912H53.5756C53.9596 8.712 54.3276 9.52267 54.6796 10.344C55.0316 11.1547 55.3836 12.008 55.7356 12.904C56.0982 13.8 56.4662 14.7493 56.8396 15.752C57.2129 16.744 57.6129 17.8267 58.0396 19H56.3436ZM54.8876 14.888C54.5462 13.96 54.2049 13.064 53.8636 12.2C53.5329 11.3253 53.1862 10.488 52.8236 9.688C52.4502 10.488 52.0929 11.3253 51.7516 12.2C51.4209 13.064 51.0902 13.96 50.7596 14.888H54.8876ZM58.8001 13.448C58.8001 12.4987 58.9387 11.6613 59.2161 10.936C59.5041 10.2107 59.8881 9.608 60.3681 9.128C60.8587 8.63733 61.4241 8.26933 62.0641 8.024C62.7147 7.77867 63.4027 7.656 64.1281 7.656C64.8427 7.656 65.5147 7.77867 66.1441 8.024C66.7841 8.26933 67.3441 8.63733 67.8241 9.128C68.3041 9.608 68.6827 10.2107 68.9601 10.936C69.2481 11.6613 69.3921 12.4987 69.3921 13.448C69.3921 14.28 69.2854 15.0213 69.0721 15.672C68.8587 16.3227 68.5601 16.888 68.1761 17.368C67.8027 17.8373 67.3601 18.2213 66.8481 18.52C66.3467 18.808 65.8081 19.0053 65.2321 19.112C65.2427 19.3573 65.3494 19.5707 65.5521 19.752C65.7654 19.944 66.0321 20.104 66.3521 20.232C66.6721 20.36 67.0294 20.4667 67.4241 20.552C67.8187 20.6373 68.2134 20.7013 68.6081 20.744L68.2401 21.96C67.6854 21.8853 67.1521 21.784 66.6401 21.656C66.1387 21.5387 65.6801 21.3787 65.2641 21.176C64.8587 20.9733 64.5174 20.712 64.2401 20.392C63.9627 20.0827 63.7761 19.6933 63.6801 19.224C63.0081 19.1813 62.3734 19.0267 61.7761 18.76C61.1787 18.4827 60.6614 18.104 60.2241 17.624C59.7867 17.1333 59.4401 16.5413 59.1841 15.848C58.9281 15.1547 58.8001 14.3547 58.8001 13.448ZM60.4321 13.448C60.4321 14.12 60.5174 14.7333 60.6881 15.288C60.8587 15.832 61.0987 16.296 61.4081 16.68C61.7281 17.064 62.1121 17.3627 62.5601 17.576C63.0187 17.7787 63.5307 17.88 64.0961 17.88C64.6614 17.88 65.1681 17.7787 65.6161 17.576C66.0641 17.3627 66.4427 17.064 66.7521 16.68C67.0721 16.296 67.3174 15.832 67.4881 15.288C67.6587 14.7333 67.7441 14.12 67.7441 13.448C67.7441 12.776 67.6587 12.168 67.4881 11.624C67.3174 11.0693 67.0721 10.6 66.7521 10.216C66.4427 9.832 66.0641 9.53867 65.6161 9.336C65.1681 9.12267 64.6614 9.016 64.0961 9.016C63.5307 9.016 63.0187 9.12267 62.5601 9.336C62.1121 9.53867 61.7281 9.832 61.4081 10.216C61.0987 10.6 60.8587 11.0693 60.6881 11.624C60.5174 12.168 60.4321 12.776 60.4321 13.448Z" fill="#454545"/>
</svg>
