<svg width="170" height="34" viewBox="0 0 170 34" fill="none" xmlns="http://www.w3.org/2000/svg">
<path d="M14.8125 17.0102C18.9029 17.0102 22.2188 13.3846 22.2188 8.91232C22.2188 4.44001 18.9029 0.814484 14.8125 0.814484C10.7221 0.814484 7.40625 4.44001 7.40625 8.91232C7.40625 13.3846 10.7221 17.0102 14.8125 17.0102ZM19.75 8.91232C19.75 11.8939 17.5394 14.3109 14.8125 14.3109C12.0856 14.3109 9.875 11.8939 9.875 8.91232C9.875 5.93078 12.0856 3.51376 14.8125 3.51376C17.5394 3.51376 19.75 5.93078 19.75 8.91232Z" fill="#454545"/>
<path d="M29.625 30.5066C29.625 33.2058 27.1562 33.2058 27.1562 33.2058H2.46875C2.46875 33.2058 0 33.2058 0 30.5066C0 27.8073 2.46875 19.7094 14.8125 19.7094C27.1562 19.7094 29.625 27.8073 29.625 30.5066ZM27.1562 30.4972C27.1527 29.831 26.7766 27.8355 25.102 26.0044C23.4917 24.2438 20.4637 22.4087 14.8125 22.4087C9.16124 22.4087 6.13325 24.2438 4.52299 26.0044C2.84833 27.8355 2.47227 29.831 2.46875 30.4972H27.1562Z" fill="#454545"/>
<path d="M48.409 20C48.2277 19.52 48.057 19.0507 47.897 18.592C47.737 18.1227 47.5717 17.648 47.401 17.168H42.377L41.369 20H39.753C40.1797 18.8267 40.5797 17.744 40.953 16.752C41.3263 15.7493 41.689 14.8 42.041 13.904C42.4037 13.008 42.761 12.1547 43.113 11.344C43.465 10.5227 43.833 9.712 44.217 8.912H45.641C46.025 9.712 46.393 10.5227 46.745 11.344C47.097 12.1547 47.449 13.008 47.801 13.904C48.1637 14.8 48.5317 15.7493 48.905 16.752C49.2783 17.744 49.6783 18.8267 50.105 20H48.409ZM46.953 15.888C46.6117 14.96 46.2703 14.064 45.929 13.2C45.5983 12.3253 45.2517 11.488 44.889 10.688C44.5157 11.488 44.1583 12.3253 43.817 13.2C43.4863 14.064 43.1557 14.96 42.825 15.888H46.953ZM56.6873 13.44C56.5059 13.2907 56.2446 13.1467 55.9033 13.008C55.5619 12.8693 55.1886 12.8 54.7833 12.8C54.3566 12.8 53.9886 12.88 53.6793 13.04C53.3806 13.1893 53.1353 13.4027 52.9433 13.68C52.7513 13.9467 52.6126 14.2667 52.5273 14.64C52.4419 15.0133 52.3993 15.4133 52.3993 15.84C52.3993 16.8107 52.6393 17.5627 53.1193 18.096C53.5993 18.6187 54.2393 18.88 55.0393 18.88C55.4446 18.88 55.7806 18.864 56.0473 18.832C56.3246 18.7893 56.5379 18.7467 56.6873 18.704V13.44ZM56.6873 7.84L58.1753 7.584V19.76C57.8339 19.856 57.3966 19.952 56.8633 20.048C56.3299 20.144 55.7166 20.192 55.0233 20.192C54.3833 20.192 53.8073 20.0907 53.2953 19.888C52.7833 19.6853 52.3459 19.3973 51.9833 19.024C51.6206 18.6507 51.3379 18.1973 51.1353 17.664C50.9433 17.12 50.8473 16.512 50.8473 15.84C50.8473 15.2 50.9273 14.6133 51.0872 14.08C51.2579 13.5467 51.5033 13.088 51.8233 12.704C52.1433 12.32 52.5326 12.0213 52.9913 11.808C53.4606 11.5947 53.9939 11.488 54.5913 11.488C55.0713 11.488 55.4926 11.552 55.8553 11.68C56.2286 11.808 56.5059 11.9307 56.6873 12.048V7.84ZM63.5491 18.928C63.9011 18.928 64.2105 18.9227 64.4771 18.912C64.7545 18.8907 64.9838 18.8587 65.1651 18.816V16.336C65.0585 16.2827 64.8825 16.24 64.6371 16.208C64.4025 16.1653 64.1145 16.144 63.7731 16.144C63.5491 16.144 63.3091 16.16 63.0531 16.192C62.8078 16.224 62.5785 16.2933 62.3651 16.4C62.1625 16.496 61.9918 16.6347 61.8531 16.816C61.7145 16.9867 61.6451 17.216 61.6451 17.504C61.6451 18.0373 61.8158 18.4107 62.1571 18.624C62.4985 18.8267 62.9625 18.928 63.5491 18.928ZM63.4211 11.472C64.0185 11.472 64.5198 11.552 64.9251 11.712C65.3411 11.8613 65.6718 12.08 65.9171 12.368C66.1731 12.6453 66.3545 12.9813 66.4611 13.376C66.5678 13.76 66.6211 14.1867 66.6211 14.656V19.856C66.4931 19.8773 66.3118 19.9093 66.0771 19.952C65.8531 19.984 65.5971 20.016 65.3091 20.048C65.0211 20.08 64.7065 20.1067 64.3651 20.128C64.0345 20.16 63.7038 20.176 63.3731 20.176C62.9038 20.176 62.4718 20.128 62.0771 20.032C61.6825 19.936 61.3411 19.7867 61.0531 19.584C60.7651 19.3707 60.5411 19.0933 60.3811 18.752C60.2211 18.4107 60.1411 18 60.1411 17.52C60.1411 17.0613 60.2318 16.6667 60.4131 16.336C60.6051 16.0053 60.8611 15.7387 61.1811 15.536C61.5011 15.3333 61.8745 15.184 62.3011 15.088C62.7278 14.992 63.1758 14.944 63.6451 14.944C63.7945 14.944 63.9491 14.9547 64.1091 14.976C64.2691 14.9867 64.4185 15.008 64.5571 15.04C64.7065 15.0613 64.8345 15.0827 64.9411 15.104C65.0478 15.1253 65.1225 15.1413 65.1651 15.152V14.736C65.1651 14.4907 65.1385 14.2507 65.0851 14.016C65.0318 13.7707 64.9358 13.5573 64.7971 13.376C64.6585 13.184 64.4665 13.0347 64.2211 12.928C63.9865 12.8107 63.6771 12.752 63.2931 12.752C62.8025 12.752 62.3705 12.7893 61.9971 12.864C61.6345 12.928 61.3625 12.9973 61.1811 13.072L61.0051 11.84C61.1971 11.7547 61.5171 11.6747 61.9651 11.6C62.4131 11.5147 62.8985 11.472 63.4211 11.472ZM71.5885 20.16C70.6712 20.1387 70.0205 19.9413 69.6365 19.568C69.2525 19.1947 69.0605 18.6133 69.0605 17.824V7.84L70.5485 7.584V17.584C70.5485 17.8293 70.5698 18.032 70.6125 18.192C70.6552 18.352 70.7245 18.48 70.8205 18.576C70.9165 18.672 71.0445 18.7467 71.2045 18.8C71.3645 18.8427 71.5618 18.88 71.7965 18.912L71.5885 20.16ZM74.9555 20H73.4675V11.68H74.9555V20ZM74.2035 10.176C73.9368 10.176 73.7075 10.0907 73.5155 9.92C73.3342 9.73867 73.2435 9.49867 73.2435 9.2C73.2435 8.90133 73.3342 8.66667 73.5155 8.496C73.7075 8.31467 73.9368 8.224 74.2035 8.224C74.4702 8.224 74.6942 8.31467 74.8755 8.496C75.0675 8.66667 75.1635 8.90133 75.1635 9.2C75.1635 9.49867 75.0675 9.73867 74.8755 9.92C74.6942 10.0907 74.4702 10.176 74.2035 10.176ZM77.5144 11.92C77.8557 11.8347 78.309 11.744 78.8744 11.648C79.4397 11.552 80.0904 11.504 80.8264 11.504C81.4877 11.504 82.037 11.6 82.4744 11.792C82.9117 11.9733 83.2584 12.2347 83.5144 12.576C83.781 12.9067 83.9677 13.3067 84.0744 13.776C84.181 14.2453 84.2344 14.7627 84.2344 15.328V20H82.7464V15.648C82.7464 15.136 82.709 14.6987 82.6344 14.336C82.5704 13.9733 82.4584 13.68 82.2984 13.456C82.1384 13.232 81.925 13.072 81.6584 12.976C81.3917 12.8693 81.061 12.816 80.6664 12.816C80.5064 12.816 80.341 12.8213 80.1704 12.832C79.9997 12.8427 79.8344 12.8587 79.6744 12.88C79.525 12.8907 79.3864 12.9067 79.2584 12.928C79.141 12.9493 79.0557 12.9653 79.0024 12.976V20H77.5144V11.92ZM86.2379 15.856C86.2379 15.12 86.3445 14.48 86.5579 13.936C86.7712 13.3813 87.0539 12.9227 87.4059 12.56C87.7579 12.1973 88.1632 11.9253 88.6219 11.744C89.0805 11.5627 89.5499 11.472 90.0299 11.472C91.1499 11.472 92.0085 11.824 92.6059 12.528C93.2032 13.2213 93.5019 14.2827 93.5019 15.712C93.5019 15.776 93.5019 15.8613 93.5019 15.968C93.5019 16.064 93.4965 16.1547 93.4859 16.24H87.7899C87.8539 17.104 88.1045 17.76 88.5419 18.208C88.9792 18.656 89.6619 18.88 90.5899 18.88C91.1125 18.88 91.5499 18.8373 91.9019 18.752C92.2645 18.656 92.5365 18.5653 92.7179 18.48L92.9259 19.728C92.7445 19.824 92.4245 19.9253 91.9659 20.032C91.5179 20.1387 91.0059 20.192 90.4299 20.192C89.7045 20.192 89.0752 20.0853 88.5419 19.872C88.0192 19.648 87.5872 19.344 87.2459 18.96C86.9045 18.576 86.6485 18.1227 86.4779 17.6C86.3179 17.0667 86.2379 16.4853 86.2379 15.856ZM91.9499 15.04C91.9605 14.368 91.7899 13.8187 91.4379 13.392C91.0965 12.9547 90.6219 12.736 90.0139 12.736C89.6725 12.736 89.3685 12.8053 89.1019 12.944C88.8459 13.072 88.6272 13.2427 88.4459 13.456C88.2645 13.6693 88.1205 13.9147 88.0139 14.192C87.9179 14.4693 87.8539 14.752 87.8219 15.04H91.9499ZM104.415 18.464C104.308 18.208 104.164 17.8827 103.983 17.488C103.812 17.0933 103.625 16.6667 103.423 16.208C103.22 15.7493 103.001 15.28 102.766 14.8C102.543 14.3093 102.329 13.8507 102.127 13.424C101.924 12.9867 101.732 12.5973 101.551 12.256C101.38 11.9147 101.241 11.6533 101.135 11.472C101.017 12.7307 100.921 14.096 100.847 15.568C100.772 17.0293 100.708 18.5067 100.655 20H99.1345C99.1772 19.04 99.2252 18.0747 99.2785 17.104C99.3318 16.1227 99.3905 15.1627 99.4545 14.224C99.5292 13.2747 99.6038 12.352 99.6785 11.456C99.7638 10.56 99.8545 9.712 99.9505 8.912H101.311C101.599 9.38133 101.908 9.936 102.239 10.576C102.569 11.216 102.9 11.888 103.231 12.592C103.561 13.2853 103.881 13.984 104.191 14.688C104.5 15.3813 104.783 16.016 105.039 16.592C105.295 16.016 105.577 15.3813 105.887 14.688C106.196 13.984 106.516 13.2853 106.847 12.592C107.177 11.888 107.508 11.216 107.839 10.576C108.169 9.936 108.479 9.38133 108.767 8.912H110.127C110.489 12.4853 110.761 16.1813 110.943 20H109.423C109.369 18.5067 109.305 17.0293 109.231 15.568C109.156 14.096 109.06 12.7307 108.943 11.472C108.836 11.6533 108.692 11.9147 108.511 12.256C108.34 12.5973 108.153 12.9867 107.951 13.424C107.748 13.8507 107.529 14.3093 107.295 14.8C107.071 15.28 106.857 15.7493 106.655 16.208C106.452 16.6667 106.26 17.0933 106.079 17.488C105.908 17.8827 105.769 18.208 105.663 18.464H104.415ZM112.816 15.856C112.816 15.12 112.923 14.48 113.136 13.936C113.349 13.3813 113.632 12.9227 113.984 12.56C114.336 12.1973 114.741 11.9253 115.2 11.744C115.659 11.5627 116.128 11.472 116.608 11.472C117.728 11.472 118.587 11.824 119.184 12.528C119.781 13.2213 120.08 14.2827 120.08 15.712C120.08 15.776 120.08 15.8613 120.08 15.968C120.08 16.064 120.075 16.1547 120.064 16.24H114.368C114.432 17.104 114.683 17.76 115.12 18.208C115.557 18.656 116.24 18.88 117.168 18.88C117.691 18.88 118.128 18.8373 118.48 18.752C118.843 18.656 119.115 18.5653 119.296 18.48L119.504 19.728C119.323 19.824 119.003 19.9253 118.544 20.032C118.096 20.1387 117.584 20.192 117.008 20.192C116.283 20.192 115.653 20.0853 115.12 19.872C114.597 19.648 114.165 19.344 113.824 18.96C113.483 18.576 113.227 18.1227 113.056 17.6C112.896 17.0667 112.816 16.4853 112.816 15.856ZM118.528 15.04C118.539 14.368 118.368 13.8187 118.016 13.392C117.675 12.9547 117.2 12.736 116.592 12.736C116.251 12.736 115.947 12.8053 115.68 12.944C115.424 13.072 115.205 13.2427 115.024 13.456C114.843 13.6693 114.699 13.9147 114.592 14.192C114.496 14.4693 114.432 14.752 114.4 15.04H118.528ZM124.714 20.16C123.796 20.1387 123.146 19.9413 122.762 19.568C122.378 19.1947 122.186 18.6133 122.186 17.824V7.84L123.674 7.584V17.584C123.674 17.8293 123.695 18.032 123.738 18.192C123.78 18.352 123.85 18.48 123.946 18.576C124.042 18.672 124.17 18.7467 124.33 18.8C124.49 18.8427 124.687 18.88 124.922 18.912L124.714 20.16ZM126.593 11.92C126.934 11.8347 127.387 11.744 127.953 11.648C128.518 11.552 129.169 11.504 129.905 11.504C130.566 11.504 131.115 11.6 131.553 11.792C131.99 11.9733 132.337 12.2347 132.593 12.576C132.859 12.9067 133.046 13.3067 133.153 13.776C133.259 14.2453 133.312 14.7627 133.312 15.328V20H131.825V15.648C131.825 15.136 131.787 14.6987 131.713 14.336C131.649 13.9733 131.537 13.68 131.377 13.456C131.217 13.232 131.003 13.072 130.737 12.976C130.47 12.8693 130.139 12.816 129.745 12.816C129.585 12.816 129.419 12.8213 129.249 12.832C129.078 12.8427 128.913 12.8587 128.753 12.88C128.603 12.8907 128.465 12.9067 128.337 12.928C128.219 12.9493 128.134 12.9653 128.081 12.976V20H126.593V11.92ZM137.268 20H135.78V11.68H137.268V20ZM136.516 10.176C136.249 10.176 136.02 10.0907 135.828 9.92C135.647 9.73867 135.556 9.49867 135.556 9.2C135.556 8.90133 135.647 8.66667 135.828 8.496C136.02 8.31467 136.249 8.224 136.516 8.224C136.783 8.224 137.007 8.31467 137.188 8.496C137.38 8.66667 137.476 8.90133 137.476 9.2C137.476 9.49867 137.38 9.73867 137.188 9.92C137.007 10.0907 136.783 10.176 136.516 10.176ZM142.835 15.424C143.155 15.6693 143.491 15.9733 143.843 16.336C144.206 16.6987 144.558 17.0933 144.899 17.52C145.251 17.936 145.582 18.3627 145.891 18.8C146.2 19.2267 146.462 19.6267 146.675 20H144.931C144.707 19.6267 144.446 19.248 144.147 18.864C143.859 18.4693 143.555 18.096 143.235 17.744C142.915 17.3813 142.59 17.0507 142.259 16.752C141.928 16.4533 141.614 16.2027 141.315 16V20H139.827V7.84L141.315 7.584V15.168C141.571 14.912 141.854 14.6293 142.163 14.32C142.472 14.0107 142.776 13.696 143.075 13.376C143.374 13.056 143.656 12.752 143.923 12.464C144.19 12.1653 144.419 11.904 144.611 11.68H146.355C146.11 11.9467 145.843 12.24 145.555 12.56C145.267 12.88 144.968 13.2053 144.659 13.536C144.35 13.856 144.035 14.1813 143.715 14.512C143.406 14.832 143.112 15.136 142.835 15.424Z" fill="#454545"/>
<path fill-rule="evenodd" clip-rule="evenodd" d="M158.133 11.1355C158.311 10.9548 158.6 10.9548 158.778 11.1355L163.925 16.3611L169.072 11.1355C169.25 10.9548 169.539 10.9548 169.717 11.1355C169.894 11.3162 169.894 11.6092 169.717 11.7899L164.247 17.3427C164.069 17.5234 163.781 17.5234 163.603 17.3427L158.133 11.7899C157.956 11.6092 157.956 11.3162 158.133 11.1355Z" fill="#454545"/>
</svg>
