<svg width="77" height="33" viewBox="0 0 77 33" fill="none" xmlns="http://www.w3.org/2000/svg">
<path d="M10.7627 15.9515C10.7627 17.1352 9.86726 18.0947 8.7627 18.0947C7.65813 18.0947 6.7627 17.1352 6.7627 15.9515C6.7627 14.7679 7.65813 13.8084 8.7627 13.8084C9.86726 13.8084 10.7627 14.7679 10.7627 15.9515Z" fill="#454545"/>
<path d="M18.7627 15.9515C18.7627 17.1352 17.8673 18.0947 16.7627 18.0947C15.6581 18.0947 14.7627 17.1352 14.7627 15.9515C14.7627 14.7679 15.6581 13.8084 16.7627 13.8084C17.8673 13.8084 18.7627 14.7679 18.7627 15.9515Z" fill="#454545"/>
<path d="M24.7627 18.0947C25.8673 18.0947 26.7627 17.1352 26.7627 15.9515C26.7627 14.7679 25.8673 13.8084 24.7627 13.8084C23.6581 13.8084 22.7627 14.7679 22.7627 15.9515C22.7627 17.1352 23.6581 18.0947 24.7627 18.0947Z" fill="#454545"/>
<path d="M5.09202 32.6746L5.13248 32.666C8.79137 31.8888 11.0294 30.8618 12.0684 30.2977C13.5528 30.7242 15.1292 30.9537 16.7627 30.9537C25.5993 30.9537 32.7627 24.237 32.7627 15.9515C32.7627 7.66606 25.5993 0.949341 16.7627 0.949341C7.92614 0.949341 0.762695 7.66606 0.762695 15.9515C0.762695 19.7254 2.24882 23.1738 4.70227 25.8103C4.55463 27.4628 4.15114 29.2358 3.65565 30.7783L3.64787 30.8025C3.58759 30.9894 3.52597 31.173 3.4633 31.3525C3.36464 31.6351 3.26337 31.9076 3.16065 32.1677C3.00343 32.5657 3.30811 33.0119 3.70614 32.9421C3.98798 32.8926 4.26269 32.8415 4.53033 32.789C4.72114 32.7515 4.90836 32.7134 5.09202 32.6746ZM6.69316 26.0145C6.74996 25.3788 6.53926 24.7491 6.11847 24.297C3.9973 22.0175 2.7627 19.0979 2.7627 15.9515C2.7627 9.10956 8.7715 3.09251 16.7627 3.09251C24.7539 3.09251 30.7627 9.10956 30.7627 15.9515C30.7627 22.7935 24.7539 28.8106 16.7627 28.8106C15.3042 28.8106 13.902 28.6057 12.5863 28.2276C12.1103 28.0909 11.6039 28.1472 11.1643 28.386C10.3898 28.8065 8.68602 29.608 5.89624 30.299C6.27273 28.9217 6.56588 27.4391 6.69316 26.0145Z" fill="#454545"/>
<path d="M48.5073 19.24C47.7286 19.24 47.0193 19.112 46.3793 18.856C45.7393 18.6 45.1899 18.2267 44.7313 17.736C44.2726 17.2453 43.9153 16.6427 43.6593 15.928C43.4139 15.2027 43.2913 14.376 43.2913 13.448C43.2913 12.52 43.4299 11.6987 43.7073 10.984C43.9953 10.2587 44.3793 9.65067 44.8593 9.16C45.3393 8.66933 45.8993 8.296 46.5393 8.04C47.1793 7.784 47.8619 7.656 48.5873 7.656C49.0459 7.656 49.4566 7.688 49.8193 7.752C50.1926 7.816 50.5126 7.89067 50.7793 7.976C51.0566 8.06133 51.2806 8.14667 51.4513 8.232C51.6219 8.31733 51.7393 8.38133 51.8033 8.424L51.3553 9.704C51.2593 9.64 51.1206 9.57067 50.9393 9.496C50.7579 9.42133 50.5499 9.34667 50.3153 9.272C50.0913 9.19733 49.8406 9.13867 49.5633 9.096C49.2966 9.04267 49.0246 9.016 48.7473 9.016C48.1606 9.016 47.6326 9.11733 47.1633 9.32C46.6939 9.52267 46.2939 9.816 45.9633 10.2C45.6326 10.584 45.3766 11.0533 45.1953 11.608C45.0246 12.152 44.9393 12.7653 44.9393 13.448C44.9393 14.1093 45.0139 14.712 45.1633 15.256C45.3233 15.8 45.5579 16.2693 45.8673 16.664C46.1766 17.048 46.5606 17.3467 47.0193 17.56C47.4886 17.7733 48.0326 17.88 48.6513 17.88C49.3659 17.88 49.9579 17.8053 50.4273 17.656C50.8966 17.5067 51.2486 17.3733 51.4833 17.256L51.8833 18.536C51.8086 18.5893 51.6753 18.6587 51.4833 18.744C51.2913 18.8187 51.0513 18.8933 50.7633 18.968C50.4753 19.0427 50.1393 19.1067 49.7553 19.16C49.3713 19.2133 48.9553 19.24 48.5073 19.24ZM53.5652 19V6.84L55.0532 6.584V10.84C55.3305 10.7333 55.6238 10.6533 55.9332 10.6C56.2532 10.536 56.5678 10.504 56.8772 10.504C57.5385 10.504 58.0878 10.6 58.5252 10.792C58.9625 10.9733 59.3092 11.2347 59.5652 11.576C59.8318 11.9067 60.0185 12.3067 60.1252 12.776C60.2318 13.2453 60.2852 13.7627 60.2852 14.328V19H58.7972V14.648C58.7972 14.136 58.7598 13.6987 58.6852 13.336C58.6212 12.9733 58.5092 12.68 58.3492 12.456C58.1892 12.232 57.9758 12.072 57.7092 11.976C57.4425 11.8693 57.1118 11.816 56.7172 11.816C56.5572 11.816 56.3918 11.8267 56.2212 11.848C56.0505 11.8693 55.8852 11.896 55.7252 11.928C55.5758 11.9493 55.4372 11.976 55.3092 12.008C55.1918 12.04 55.1065 12.0667 55.0532 12.088V19H53.5652ZM65.5218 17.928C65.8738 17.928 66.1831 17.9227 66.4498 17.912C66.7271 17.8907 66.9564 17.8587 67.1378 17.816V15.336C67.0311 15.2827 66.8551 15.24 66.6098 15.208C66.3751 15.1653 66.0871 15.144 65.7458 15.144C65.5218 15.144 65.2818 15.16 65.0258 15.192C64.7804 15.224 64.5511 15.2933 64.3378 15.4C64.1351 15.496 63.9644 15.6347 63.8258 15.816C63.6871 15.9867 63.6178 16.216 63.6178 16.504C63.6178 17.0373 63.7884 17.4107 64.1298 17.624C64.4711 17.8267 64.9351 17.928 65.5218 17.928ZM65.3938 10.472C65.9911 10.472 66.4924 10.552 66.8978 10.712C67.3138 10.8613 67.6444 11.08 67.8898 11.368C68.1458 11.6453 68.3271 11.9813 68.4338 12.376C68.5404 12.76 68.5938 13.1867 68.5938 13.656V18.856C68.4658 18.8773 68.2844 18.9093 68.0498 18.952C67.8258 18.984 67.5698 19.016 67.2818 19.048C66.9938 19.08 66.6791 19.1067 66.3378 19.128C66.0071 19.16 65.6764 19.176 65.3458 19.176C64.8764 19.176 64.4444 19.128 64.0498 19.032C63.6551 18.936 63.3138 18.7867 63.0258 18.584C62.7378 18.3707 62.5138 18.0933 62.3538 17.752C62.1938 17.4107 62.1138 17 62.1138 16.52C62.1138 16.0613 62.2044 15.6667 62.3858 15.336C62.5778 15.0053 62.8338 14.7387 63.1538 14.536C63.4738 14.3333 63.8471 14.184 64.2738 14.088C64.7004 13.992 65.1484 13.944 65.6178 13.944C65.7671 13.944 65.9218 13.9547 66.0818 13.976C66.2418 13.9867 66.3911 14.008 66.5298 14.04C66.6791 14.0613 66.8071 14.0827 66.9138 14.104C67.0204 14.1253 67.0951 14.1413 67.1378 14.152V13.736C67.1378 13.4907 67.1111 13.2507 67.0578 13.016C67.0044 12.7707 66.9084 12.5573 66.7698 12.376C66.6311 12.184 66.4391 12.0347 66.1938 11.928C65.9591 11.8107 65.6498 11.752 65.2658 11.752C64.7751 11.752 64.3431 11.7893 63.9698 11.864C63.6071 11.928 63.3351 11.9973 63.1538 12.072L62.9778 10.84C63.1698 10.7547 63.4898 10.6747 63.9378 10.6C64.3858 10.5147 64.8711 10.472 65.3938 10.472ZM72.4572 10.68H75.6092V11.928H72.4572V15.768C72.4572 16.184 72.4892 16.5307 72.5532 16.808C72.6172 17.0747 72.7132 17.288 72.8412 17.448C72.9692 17.5973 73.1292 17.704 73.3212 17.768C73.5132 17.832 73.7372 17.864 73.9932 17.864C74.4412 17.864 74.7985 17.816 75.0652 17.72C75.3425 17.6133 75.5345 17.5387 75.6412 17.496L75.9292 18.728C75.7798 18.8027 75.5185 18.8933 75.1452 19C74.7718 19.1173 74.3452 19.176 73.8652 19.176C73.2998 19.176 72.8305 19.1067 72.4572 18.968C72.0945 18.8187 71.8012 18.6 71.5772 18.312C71.3532 18.024 71.1932 17.672 71.0972 17.256C71.0118 16.8293 70.9692 16.3387 70.9692 15.784V8.36L72.4572 8.104V10.68Z" fill="#454545"/>
</svg>
