<svg width="128" height="34" viewBox="0 0 128 34" fill="none" xmlns="http://www.w3.org/2000/svg">
<path d="M13.2379 33.3407C15.2636 33.3407 16.9057 31.5279 16.9057 29.2918H9.57003C9.57003 31.5279 11.2122 33.3407 13.2379 33.3407Z" fill="#454545"/>
<path d="M13.2379 4.83276L11.7759 5.1587C8.42479 5.9058 5.90222 9.17802 5.90222 13.0961C5.90222 14.3671 5.6558 17.5443 5.06069 20.672C4.76526 22.2246 4.37 23.8412 3.84468 25.2429H22.6311C22.1058 23.8412 21.7105 22.2246 21.4151 20.6719C20.82 17.5443 20.5736 14.3671 20.5736 13.0961C20.5736 9.17799 18.051 5.90576 14.6999 5.15869L13.2379 4.83276ZM24.6437 25.2429C25.0531 26.1486 25.5279 26.8644 26.0754 27.2673H0.400391C0.947868 26.8644 1.42271 26.1486 1.83214 25.2429C3.47996 21.5976 4.06829 14.8759 4.06829 13.0961C4.06829 8.19557 7.22297 4.1084 11.4128 3.17431C11.407 3.10835 11.404 3.04146 11.404 2.9738C11.404 1.85572 12.225 0.949341 13.2379 0.949341C14.2507 0.949341 15.0718 1.85572 15.0718 2.9738C15.0718 3.04146 15.0688 3.10834 15.0629 3.17429C19.2528 4.10835 22.4076 8.19554 22.4076 13.0961C22.4076 14.8759 22.9958 21.5976 24.6437 25.2429Z" fill="#454545"/>
<path d="M45.0512 19C44.8165 18.6053 44.5445 18.1627 44.2352 17.672C43.9365 17.1813 43.6112 16.6747 43.2592 16.152C42.9072 15.6187 42.5392 15.08 42.1552 14.536C41.7819 13.992 41.4085 13.4693 41.0352 12.968C40.6619 12.456 40.2992 11.976 39.9472 11.528C39.5952 11.08 39.2699 10.6853 38.9712 10.344V19H37.4512V7.912H38.6832C39.1845 8.44533 39.7179 9.06933 40.2832 9.784C40.8592 10.488 41.4245 11.2187 41.9792 11.976C42.5445 12.7227 43.0725 13.4587 43.5632 14.184C44.0645 14.9093 44.4859 15.5547 44.8272 16.12V7.912H46.3472V19H45.0512ZM56.3398 14.84C56.3398 15.5013 56.2438 16.0987 56.0518 16.632C55.8598 17.1653 55.5878 17.624 55.2358 18.008C54.8945 18.392 54.4838 18.6907 54.0038 18.904C53.5238 19.1067 53.0012 19.208 52.4358 19.208C51.8705 19.208 51.3478 19.1067 50.8678 18.904C50.3878 18.6907 49.9718 18.392 49.6198 18.008C49.2785 17.624 49.0118 17.1653 48.8198 16.632C48.6278 16.0987 48.5318 15.5013 48.5318 14.84C48.5318 14.1893 48.6278 13.5973 48.8198 13.064C49.0118 12.52 49.2785 12.056 49.6198 11.672C49.9718 11.288 50.3878 10.9947 50.8678 10.792C51.3478 10.5787 51.8705 10.472 52.4358 10.472C53.0012 10.472 53.5238 10.5787 54.0038 10.792C54.4838 10.9947 54.8945 11.288 55.2358 11.672C55.5878 12.056 55.8598 12.52 56.0518 13.064C56.2438 13.5973 56.3398 14.1893 56.3398 14.84ZM54.7878 14.84C54.7878 13.9013 54.5745 13.16 54.1478 12.616C53.7318 12.0613 53.1612 11.784 52.4358 11.784C51.7105 11.784 51.1345 12.0613 50.7078 12.616C50.2918 13.16 50.0838 13.9013 50.0838 14.84C50.0838 15.7787 50.2918 16.5253 50.7078 17.08C51.1345 17.624 51.7105 17.896 52.4358 17.896C53.1612 17.896 53.7318 17.624 54.1478 17.08C54.5745 16.5253 54.7878 15.7787 54.7878 14.84ZM59.8253 10.68H62.9773V11.928H59.8253V15.768C59.8253 16.184 59.8573 16.5307 59.9213 16.808C59.9853 17.0747 60.0813 17.288 60.2093 17.448C60.3373 17.5973 60.4973 17.704 60.6893 17.768C60.8813 17.832 61.1053 17.864 61.3613 17.864C61.8093 17.864 62.1667 17.816 62.4333 17.72C62.7107 17.6133 62.9027 17.5387 63.0093 17.496L63.2973 18.728C63.148 18.8027 62.8867 18.8933 62.5133 19C62.14 19.1173 61.7133 19.176 61.2333 19.176C60.668 19.176 60.1987 19.1067 59.8253 18.968C59.4627 18.8187 59.1693 18.6 58.9453 18.312C58.7213 18.024 58.5613 17.672 58.4653 17.256C58.38 16.8293 58.3373 16.3387 58.3373 15.784V8.36L59.8253 8.104V10.68ZM66.3588 19H64.8708V10.68H66.3588V19ZM65.6068 9.176C65.3402 9.176 65.1108 9.09067 64.9188 8.92C64.7375 8.73867 64.6468 8.49867 64.6468 8.2C64.6468 7.90133 64.7375 7.66667 64.9188 7.496C65.1108 7.31467 65.3402 7.224 65.6068 7.224C65.8735 7.224 66.0975 7.31467 66.2788 7.496C66.4708 7.66667 66.5668 7.90133 66.5668 8.2C66.5668 8.49867 66.4708 8.73867 66.2788 8.92C66.0975 9.09067 65.8735 9.176 65.6068 9.176ZM72.1657 6.584C72.539 6.584 72.859 6.61067 73.1257 6.664C73.3924 6.70667 73.5844 6.74933 73.7017 6.792L73.4937 8.072C73.3764 8.02933 73.2164 7.98667 73.0137 7.944C72.811 7.89067 72.5657 7.864 72.2777 7.864C71.5844 7.864 71.099 8.056 70.8217 8.44C70.5444 8.81333 70.4057 9.32 70.4057 9.96V10.68H73.6057V11.928H70.4057V19H68.9177V9.928C68.9177 8.86133 69.179 8.04 69.7017 7.464C70.2244 6.87733 71.0457 6.584 72.1657 6.584ZM76.6457 19H75.1577V10.68H76.6457V19ZM75.8937 9.176C75.627 9.176 75.3977 9.09067 75.2057 8.92C75.0244 8.73867 74.9337 8.49867 74.9337 8.2C74.9337 7.90133 75.0244 7.66667 75.2057 7.496C75.3977 7.31467 75.627 7.224 75.8937 7.224C76.1604 7.224 76.3844 7.31467 76.5657 7.496C76.7577 7.66667 76.8537 7.90133 76.8537 8.2C76.8537 8.49867 76.7577 8.73867 76.5657 8.92C76.3844 9.09067 76.1604 9.176 75.8937 9.176ZM82.8149 19.192C82.1429 19.192 81.5509 19.0853 81.0389 18.872C80.5376 18.6587 80.1109 18.36 79.7589 17.976C79.4176 17.592 79.1616 17.1387 78.9909 16.616C78.8203 16.0827 78.7349 15.496 78.7349 14.856C78.7349 14.216 78.8256 13.6293 79.0069 13.096C79.1989 12.5627 79.4656 12.104 79.8069 11.72C80.1483 11.3253 80.5643 11.0213 81.0549 10.808C81.5563 10.584 82.1109 10.472 82.7189 10.472C83.0923 10.472 83.4656 10.504 83.8389 10.568C84.2123 10.632 84.5696 10.7333 84.9109 10.872L84.5749 12.136C84.3509 12.0293 84.0896 11.944 83.7909 11.88C83.5029 11.816 83.1936 11.784 82.8629 11.784C82.0309 11.784 81.3909 12.0453 80.9429 12.568C80.5056 13.0907 80.2869 13.8533 80.2869 14.856C80.2869 15.304 80.3349 15.7147 80.4309 16.088C80.5376 16.4613 80.6976 16.7813 80.9109 17.048C81.1349 17.3147 81.4176 17.5227 81.7589 17.672C82.1003 17.8107 82.5163 17.88 83.0069 17.88C83.4016 17.88 83.7589 17.8427 84.0789 17.768C84.3989 17.6933 84.6496 17.6133 84.8309 17.528L85.0389 18.776C84.9536 18.8293 84.8309 18.8827 84.6709 18.936C84.5109 18.9787 84.3296 19.016 84.1269 19.048C83.9243 19.0907 83.7056 19.1227 83.4709 19.144C83.2469 19.176 83.0283 19.192 82.8149 19.192ZM89.4524 17.928C89.8044 17.928 90.1138 17.9227 90.3804 17.912C90.6578 17.8907 90.8871 17.8587 91.0684 17.816V15.336C90.9618 15.2827 90.7858 15.24 90.5404 15.208C90.3058 15.1653 90.0178 15.144 89.6764 15.144C89.4524 15.144 89.2124 15.16 88.9564 15.192C88.7111 15.224 88.4818 15.2933 88.2684 15.4C88.0658 15.496 87.8951 15.6347 87.7564 15.816C87.6178 15.9867 87.5484 16.216 87.5484 16.504C87.5484 17.0373 87.7191 17.4107 88.0604 17.624C88.4018 17.8267 88.8658 17.928 89.4524 17.928ZM89.3244 10.472C89.9218 10.472 90.4231 10.552 90.8284 10.712C91.2444 10.8613 91.5751 11.08 91.8204 11.368C92.0764 11.6453 92.2578 11.9813 92.3644 12.376C92.4711 12.76 92.5244 13.1867 92.5244 13.656V18.856C92.3964 18.8773 92.2151 18.9093 91.9804 18.952C91.7564 18.984 91.5004 19.016 91.2124 19.048C90.9244 19.08 90.6098 19.1067 90.2684 19.128C89.9378 19.16 89.6071 19.176 89.2764 19.176C88.8071 19.176 88.3751 19.128 87.9804 19.032C87.5858 18.936 87.2444 18.7867 86.9564 18.584C86.6684 18.3707 86.4444 18.0933 86.2844 17.752C86.1244 17.4107 86.0444 17 86.0444 16.52C86.0444 16.0613 86.1351 15.6667 86.3164 15.336C86.5084 15.0053 86.7644 14.7387 87.0844 14.536C87.4044 14.3333 87.7778 14.184 88.2044 14.088C88.6311 13.992 89.0791 13.944 89.5484 13.944C89.6978 13.944 89.8524 13.9547 90.0124 13.976C90.1724 13.9867 90.3218 14.008 90.4604 14.04C90.6098 14.0613 90.7378 14.0827 90.8444 14.104C90.9511 14.1253 91.0258 14.1413 91.0684 14.152V13.736C91.0684 13.4907 91.0418 13.2507 90.9884 13.016C90.9351 12.7707 90.8391 12.5573 90.7004 12.376C90.5618 12.184 90.3698 12.0347 90.1244 11.928C89.8898 11.8107 89.5804 11.752 89.1964 11.752C88.7058 11.752 88.2738 11.7893 87.9004 11.864C87.5378 11.928 87.2658 11.9973 87.0844 12.072L86.9084 10.84C87.1004 10.7547 87.4204 10.6747 87.8684 10.6C88.3164 10.5147 88.8018 10.472 89.3244 10.472ZM98.8038 19.192L98.6278 19.592C98.9372 19.7413 99.1612 19.9013 99.2998 20.072C99.4385 20.2533 99.5078 20.5147 99.5078 20.856C99.5078 20.9733 99.4812 21.1013 99.4278 21.24C99.3745 21.3787 99.2838 21.5067 99.1558 21.624C99.0278 21.7413 98.8572 21.8373 98.6438 21.912C98.4305 21.9867 98.1692 22.024 97.8598 22.024C97.5825 22.024 97.3265 22.0027 97.0918 21.96C96.8678 21.9173 96.6865 21.8693 96.5478 21.816L96.7238 20.904C96.8518 20.9467 96.9852 20.984 97.1238 21.016C97.2732 21.048 97.4385 21.064 97.6198 21.064C98.0038 21.064 98.1958 20.9413 98.1958 20.696C98.1958 20.5787 98.1372 20.4773 98.0198 20.392C97.9025 20.3173 97.7372 20.2373 97.5238 20.152L97.4118 20.104C97.4545 19.976 97.5132 19.8213 97.5878 19.64C97.6625 19.4587 97.7425 19.288 97.8278 19.128C97.2838 19.0533 96.8038 18.8987 96.3878 18.664C95.9825 18.4187 95.6412 18.1093 95.3638 17.736C95.0865 17.3627 94.8785 16.936 94.7398 16.456C94.6012 15.9653 94.5318 15.432 94.5318 14.856C94.5318 14.216 94.6225 13.6293 94.8038 13.096C94.9958 12.5627 95.2625 12.104 95.6038 11.72C95.9452 11.3253 96.3612 11.0213 96.8518 10.808C97.3532 10.584 97.9078 10.472 98.5158 10.472C98.8892 10.472 99.2625 10.504 99.6358 10.568C100.009 10.632 100.366 10.7333 100.708 10.872L100.372 12.136C100.148 12.0293 99.8865 11.944 99.5878 11.88C99.2998 11.816 98.9905 11.784 98.6598 11.784C97.8278 11.784 97.1878 12.0453 96.7398 12.568C96.3025 13.0907 96.0838 13.8533 96.0838 14.856C96.0838 15.304 96.1318 15.7147 96.2278 16.088C96.3345 16.4613 96.4945 16.7813 96.7078 17.048C96.9318 17.3147 97.2145 17.5227 97.5558 17.672C97.8972 17.8107 98.3132 17.88 98.8038 17.88C99.1985 17.88 99.5558 17.8427 99.8758 17.768C100.196 17.6933 100.446 17.6133 100.628 17.528L100.836 18.776C100.75 18.8187 100.633 18.8667 100.484 18.92C100.345 18.9627 100.185 19 100.004 19.032C99.8225 19.0747 99.6252 19.1067 99.4118 19.128C99.2092 19.16 99.0065 19.1813 98.8038 19.192ZM109.574 14.84C109.574 15.5013 109.478 16.0987 109.286 16.632C109.094 17.1653 108.822 17.624 108.47 18.008C108.129 18.392 107.718 18.6907 107.238 18.904C106.758 19.1067 106.236 19.208 105.67 19.208C105.105 19.208 104.582 19.1067 104.102 18.904C103.622 18.6907 103.206 18.392 102.854 18.008C102.513 17.624 102.246 17.1653 102.054 16.632C101.862 16.0987 101.766 15.5013 101.766 14.84C101.766 14.1893 101.862 13.5973 102.054 13.064C102.246 12.52 102.513 12.056 102.854 11.672C103.206 11.288 103.622 10.9947 104.102 10.792C104.582 10.5787 105.105 10.472 105.67 10.472C106.236 10.472 106.758 10.5787 107.238 10.792C107.718 10.9947 108.129 11.288 108.47 11.672C108.822 12.056 109.094 12.52 109.286 13.064C109.478 13.5973 109.574 14.1893 109.574 14.84ZM108.022 14.84C108.022 13.9013 107.809 13.16 107.382 12.616C106.966 12.0613 106.396 11.784 105.67 11.784C104.945 11.784 104.369 12.0613 103.942 12.616C103.526 13.16 103.318 13.9013 103.318 14.84C103.318 15.7787 103.526 16.5253 103.942 17.08C104.369 17.624 104.945 17.896 105.67 17.896C106.396 17.896 106.966 17.624 107.382 17.08C107.809 16.5253 108.022 15.7787 108.022 14.84ZM108.31 7.624C108.257 7.752 108.182 7.90133 108.086 8.072C108.001 8.24267 107.889 8.40267 107.75 8.552C107.612 8.69067 107.446 8.81333 107.254 8.92C107.073 9.016 106.87 9.064 106.646 9.064C106.433 9.064 106.23 9.02667 106.038 8.952C105.857 8.87733 105.681 8.79733 105.51 8.712C105.329 8.62667 105.174 8.56267 105.046 8.52C104.918 8.47733 104.796 8.456 104.678 8.456C104.497 8.456 104.326 8.53067 104.166 8.68C104.017 8.82933 103.9 8.98933 103.814 9.16L103.046 8.776C103.089 8.648 103.158 8.49867 103.254 8.328C103.35 8.15733 103.468 8.00267 103.606 7.864C103.745 7.71467 103.905 7.592 104.086 7.496C104.278 7.38933 104.486 7.336 104.71 7.336C104.924 7.336 105.121 7.37333 105.302 7.448C105.494 7.52267 105.676 7.60267 105.846 7.688C106.028 7.77333 106.182 7.83733 106.31 7.88C106.438 7.92267 106.561 7.944 106.678 7.944C106.86 7.944 107.025 7.86933 107.174 7.72C107.334 7.57067 107.457 7.41067 107.542 7.24L108.31 7.624ZM111.204 14.856C111.204 14.12 111.31 13.48 111.524 12.936C111.737 12.3813 112.02 11.9227 112.372 11.56C112.724 11.1973 113.129 10.9253 113.588 10.744C114.046 10.5627 114.516 10.472 114.996 10.472C116.116 10.472 116.974 10.824 117.572 11.528C118.169 12.2213 118.468 13.2827 118.468 14.712C118.468 14.776 118.468 14.8613 118.468 14.968C118.468 15.064 118.462 15.1547 118.452 15.24H112.756C112.82 16.104 113.07 16.76 113.508 17.208C113.945 17.656 114.628 17.88 115.556 17.88C116.078 17.88 116.516 17.8373 116.868 17.752C117.23 17.656 117.502 17.5653 117.684 17.48L117.892 18.728C117.71 18.824 117.39 18.9253 116.932 19.032C116.484 19.1387 115.972 19.192 115.396 19.192C114.67 19.192 114.041 19.0853 113.508 18.872C112.985 18.648 112.553 18.344 112.212 17.96C111.87 17.576 111.614 17.1227 111.444 16.6C111.284 16.0667 111.204 15.4853 111.204 14.856ZM116.916 14.04C116.926 13.368 116.756 12.8187 116.404 12.392C116.062 11.9547 115.588 11.736 114.98 11.736C114.638 11.736 114.334 11.8053 114.068 11.944C113.812 12.072 113.593 12.2427 113.412 12.456C113.23 12.6693 113.086 12.9147 112.98 13.192C112.884 13.4693 112.82 13.752 112.788 14.04H116.916ZM122.541 17.928C123.149 17.928 123.597 17.848 123.885 17.688C124.184 17.528 124.333 17.272 124.333 16.92C124.333 16.5573 124.189 16.2693 123.901 16.056C123.613 15.8427 123.139 15.6027 122.477 15.336C122.157 15.208 121.848 15.08 121.549 14.952C121.261 14.8133 121.011 14.6533 120.797 14.472C120.584 14.2907 120.413 14.072 120.285 13.816C120.157 13.56 120.093 13.2453 120.093 12.872C120.093 12.136 120.365 11.5547 120.909 11.128C121.453 10.6907 122.195 10.472 123.133 10.472C123.368 10.472 123.603 10.488 123.837 10.52C124.072 10.5413 124.291 10.5733 124.493 10.616C124.696 10.648 124.872 10.6853 125.021 10.728C125.181 10.7707 125.304 10.808 125.389 10.84L125.117 12.12C124.957 12.0347 124.707 11.9493 124.365 11.864C124.024 11.768 123.613 11.72 123.133 11.72C122.717 11.72 122.355 11.8053 122.045 11.976C121.736 12.136 121.581 12.392 121.581 12.744C121.581 12.9253 121.613 13.0853 121.677 13.224C121.752 13.3627 121.859 13.4907 121.997 13.608C122.147 13.7147 122.328 13.816 122.541 13.912C122.755 14.008 123.011 14.1093 123.309 14.216C123.704 14.3653 124.056 14.5147 124.365 14.664C124.675 14.8027 124.936 14.968 125.149 15.16C125.373 15.352 125.544 15.5867 125.661 15.864C125.779 16.1307 125.837 16.4613 125.837 16.856C125.837 17.624 125.549 18.2053 124.973 18.6C124.408 18.9947 123.597 19.192 122.541 19.192C121.805 19.192 121.229 19.128 120.813 19C120.397 18.8827 120.115 18.792 119.965 18.728L120.237 17.448C120.408 17.512 120.68 17.608 121.053 17.736C121.427 17.864 121.923 17.928 122.541 17.928Z" fill="#454545"/>
</svg>
